<svg id="visual" viewBox="0 0 450 1000" width="450" height="1000" xmlns="http://www.w3.org/2000/svg" xmlns:xlink="http://www.w3.org/1999/xlink" version="1.1"><rect x="0" y="0" width="450" height="1000" fill="#001220"></rect><defs><linearGradient id="grad1_0" x1="0%" y1="0%" x2="100%" y2="100%"><stop offset="30%" stop-color="#a952ff" stop-opacity="1"></stop><stop offset="70%" stop-color="#a952ff" stop-opacity="1"></stop></linearGradient></defs><defs><linearGradient id="grad1_1" x1="0%" y1="0%" x2="100%" y2="100%"><stop offset="30%" stop-color="#a952ff" stop-opacity="1"></stop><stop offset="70%" stop-color="#7653e6" stop-opacity="1"></stop></linearGradient></defs><defs><linearGradient id="grad1_2" x1="0%" y1="0%" x2="100%" y2="100%"><stop offset="30%" stop-color="#464fc8" stop-opacity="1"></stop><stop offset="70%" stop-color="#7653e6" stop-opacity="1"></stop></linearGradient></defs><defs><linearGradient id="grad1_3" x1="0%" y1="0%" x2="100%" y2="100%"><stop offset="30%" stop-color="#464fc8" stop-opacity="1"></stop><stop offset="70%" stop-color="#1147a8" stop-opacity="1"></stop></linearGradient></defs><defs><linearGradient id="grad1_4" x1="0%" y1="0%" x2="100%" y2="100%"><stop offset="30%" stop-color="#003c85" stop-opacity="1"></stop><stop offset="70%" stop-color="#1147a8" stop-opacity="1"></stop></linearGradient></defs><defs><linearGradient id="grad1_5" x1="0%" y1="0%" x2="100%" y2="100%"><stop offset="30%" stop-color="#003c85" stop-opacity="1"></stop><stop offset="70%" stop-color="#002f62" stop-opacity="1"></stop></linearGradient></defs><defs><linearGradient id="grad1_6" x1="0%" y1="0%" x2="100%" y2="100%"><stop offset="30%" stop-color="#002140" stop-opacity="1"></stop><stop offset="70%" stop-color="#002f62" stop-opacity="1"></stop></linearGradient></defs><defs><linearGradient id="grad1_7" x1="0%" y1="0%" x2="100%" y2="100%"><stop offset="30%" stop-color="#002140" stop-opacity="1"></stop><stop offset="70%" stop-color="#001220" stop-opacity="1"></stop></linearGradient></defs><defs><linearGradient id="grad2_0" x1="0%" y1="0%" x2="100%" y2="100%"><stop offset="30%" stop-color="#a952ff" stop-opacity="1"></stop><stop offset="70%" stop-color="#a952ff" stop-opacity="1"></stop></linearGradient></defs><defs><linearGradient id="grad2_1" x1="0%" y1="0%" x2="100%" y2="100%"><stop offset="30%" stop-color="#7653e6" stop-opacity="1"></stop><stop offset="70%" stop-color="#a952ff" stop-opacity="1"></stop></linearGradient></defs><defs><linearGradient id="grad2_2" x1="0%" y1="0%" x2="100%" y2="100%"><stop offset="30%" stop-color="#7653e6" stop-opacity="1"></stop><stop offset="70%" stop-color="#464fc8" stop-opacity="1"></stop></linearGradient></defs><defs><linearGradient id="grad2_3" x1="0%" y1="0%" x2="100%" y2="100%"><stop offset="30%" stop-color="#1147a8" stop-opacity="1"></stop><stop offset="70%" stop-color="#464fc8" stop-opacity="1"></stop></linearGradient></defs><defs><linearGradient id="grad2_4" x1="0%" y1="0%" x2="100%" y2="100%"><stop offset="30%" stop-color="#1147a8" stop-opacity="1"></stop><stop offset="70%" stop-color="#003c85" stop-opacity="1"></stop></linearGradient></defs><defs><linearGradient id="grad2_5" x1="0%" y1="0%" x2="100%" y2="100%"><stop offset="30%" stop-color="#002f62" stop-opacity="1"></stop><stop offset="70%" stop-color="#003c85" stop-opacity="1"></stop></linearGradient></defs><defs><linearGradient id="grad2_6" x1="0%" y1="0%" x2="100%" y2="100%"><stop offset="30%" stop-color="#002f62" stop-opacity="1"></stop><stop offset="70%" stop-color="#002140" stop-opacity="1"></stop></linearGradient></defs><defs><linearGradient id="grad2_7" x1="0%" y1="0%" x2="100%" y2="100%"><stop offset="30%" stop-color="#001220" stop-opacity="1"></stop><stop offset="70%" stop-color="#002140" stop-opacity="1"></stop></linearGradient></defs><g transform="translate(450, 0)"><path d="M0 450C-46.2 442.6 -92.4 435.2 -137.2 422.3C-182 409.3 -225.3 390.9 -264.5 364.1C-303.7 337.3 -338.8 302.2 -360 261.6C-381.3 221 -388.7 174.9 -401.3 130.4C-414 85.9 -432 42.9 -450 0L0 0Z" fill="#001a30"></path><path d="M0 393.8C-40.4 387.3 -80.9 380.8 -120.1 369.5C-159.2 358.2 -197.1 342 -231.4 318.6C-265.7 295.1 -296.4 264.4 -315 228.9C-333.6 193.4 -340.1 153 -351.2 114.1C-362.3 75.2 -378 37.6 -393.7 0L0 0Z" fill="#002851"></path><path d="M0 337.5C-34.7 332 -69.3 326.4 -102.9 316.7C-136.5 307 -169 293.1 -198.4 273C-227.8 252.9 -254.1 226.6 -270 196.2C-285.9 165.7 -291.5 131.2 -301 97.8C-310.5 64.4 -324 32.2 -337.5 0L0 0Z" fill="#003674"></path><path d="M0 281.3C-28.9 276.6 -57.8 272 -85.8 263.9C-113.7 255.8 -140.8 244.3 -165.3 227.5C-189.8 210.8 -211.7 188.8 -225 163.5C-238.3 138.1 -242.9 109.3 -250.8 81.5C-258.8 53.7 -270 26.8 -281.2 0L0 0Z" fill="#004297"></path><path d="M0 225C-23.1 221.3 -46.2 217.6 -68.6 211.1C-91 204.7 -112.7 195.4 -132.3 182C-151.9 168.6 -169.4 151.1 -180 130.8C-190.6 110.5 -194.3 87.5 -200.7 65.2C-207 42.9 -216 21.5 -225 0L0 0Z" fill="#2e4bb9"></path><path d="M0 168.8C-17.3 166 -34.7 163.2 -51.5 158.4C-68.2 153.5 -84.5 146.6 -99.2 136.5C-113.9 126.5 -127 113.3 -135 98.1C-143 82.9 -145.7 65.6 -150.5 48.9C-155.3 32.2 -162 16.1 -168.7 0L0 0Z" fill="#5e52d8"></path><path d="M0 112.5C-11.6 110.7 -23.1 108.8 -34.3 105.6C-45.5 102.3 -56.3 97.7 -66.1 91C-75.9 84.3 -84.7 75.5 -90 65.4C-95.3 55.2 -97.2 43.7 -100.3 32.6C-103.5 21.5 -108 10.7 -112.5 0L0 0Z" fill="#8f53f3"></path><path d="M0 56.3C-5.8 55.3 -11.6 54.4 -17.2 52.8C-22.7 51.2 -28.2 48.9 -33.1 45.5C-38 42.2 -42.3 37.8 -45 32.7C-47.7 27.6 -48.6 21.9 -50.2 16.3C-51.8 10.7 -54 5.4 -56.2 0L0 0Z" fill="#a952ff"></path></g><g transform="translate(0, 1000)"><path d="M0 -450C43.2 -435.2 86.4 -420.4 132.9 -409C179.4 -397.5 229.2 -389.3 262.7 -361.6C296.3 -334 313.4 -286.8 341.4 -248C369.4 -209.3 408.1 -179 428 -139.1C447.9 -99.1 448.9 -49.6 450 0L0 0Z" fill="#001a30"></path><path d="M0 -393.7C37.8 -380.8 75.6 -367.9 116.3 -357.8C157 -347.8 200.6 -340.6 229.9 -316.4C259.2 -292.2 274.3 -250.9 298.7 -217C323.2 -183.1 357.1 -156.6 374.5 -121.7C391.9 -86.7 392.8 -43.4 393.8 0L0 0Z" fill="#002851"></path><path d="M0 -337.5C32.4 -326.4 64.8 -315.3 99.7 -306.7C134.5 -298.1 171.9 -292 197.1 -271.2C222.2 -250.5 235.1 -215.1 256.1 -186C277 -157 306.1 -134.2 321 -104.3C335.9 -74.3 336.7 -37.2 337.5 0L0 0Z" fill="#003674"></path><path d="M0 -281.2C27 -272 54 -262.8 83 -255.6C112.1 -248.4 143.3 -243.3 164.2 -226C185.2 -208.7 195.9 -179.2 213.4 -155C230.9 -130.8 255.1 -111.9 267.5 -86.9C279.9 -62 280.6 -31 281.3 0L0 0Z" fill="#004297"></path><path d="M0 -225C21.6 -217.6 43.2 -210.2 66.4 -204.5C89.7 -198.7 114.6 -194.7 131.4 -180.8C148.1 -167 156.7 -143.4 170.7 -124C184.7 -104.7 204 -89.5 214 -69.5C223.9 -49.6 224.5 -24.8 225 0L0 0Z" fill="#2e4bb9"></path><path d="M0 -168.7C16.2 -163.2 32.4 -157.7 49.8 -153.4C67.3 -149.1 86 -146 98.5 -135.6C111.1 -125.2 117.5 -107.5 128 -93C138.5 -78.5 153 -67.1 160.5 -52.1C168 -37.2 168.4 -18.6 168.8 0L0 0Z" fill="#5e52d8"></path><path d="M0 -112.5C10.8 -108.8 21.6 -105.1 33.2 -102.2C44.8 -99.4 57.3 -97.3 65.7 -90.4C74.1 -83.5 78.4 -71.7 85.4 -62C92.3 -52.3 102 -44.7 107 -34.8C112 -24.8 112.2 -12.4 112.5 0L0 0Z" fill="#8f53f3"></path><path d="M0 -56.2C5.4 -54.4 10.8 -52.6 16.6 -51.1C22.4 -49.7 28.7 -48.7 32.8 -45.2C37 -41.7 39.2 -35.8 42.7 -31C46.2 -26.2 51 -22.4 53.5 -17.4C56 -12.4 56.1 -6.2 56.3 0L0 0Z" fill="#a952ff"></path></g></svg>